<?xml version="1.0" encoding="UTF-8"?>
<svg id="Layer_2" data-name="Layer 2" xmlns="http://www.w3.org/2000/svg" viewBox="0 0 166.81 200.92">
  <defs>
    <style>
      .cls-1 {
        letter-spacing: -.03em;
      }

      .cls-2 {
        fill: #a69979;
      }

      .cls-3, .cls-4 {
        fill: #3d3a32;
      }

      .cls-5 {
        letter-spacing: 0em;
      }

      .cls-6, .cls-7 {
        fill: #605a49;
      }

      .cls-4 {
        font-size: 32px;
      }

      .cls-4, .cls-7 {
        font-family: RedHatDisplay-Bold, 'Red Hat Display';
        font-variation-settings: 'wght' 700;
        font-weight: 700;
      }

      .cls-8 {
        letter-spacing: -.04em;
      }

      .cls-9 {
        fill: #837a61;
      }

      .cls-10 {
        letter-spacing: 0em;
      }

      .cls-11 {
        fill: #ecd9a8;
      }

      .cls-12 {
        letter-spacing: -.04em;
      }

      .cls-13 {
        letter-spacing: .02em;
      }

      .cls-14 {
        fill: #c9b990;
      }

      .cls-15 {
        letter-spacing: 0em;
      }

      .cls-7 {
        font-size: 18px;
      }
    </style>
  </defs>
  <g id="Layer_1-2" data-name="Layer 1">
    <g>
      <path class="cls-3" d="m127.35,71.39c-.73,21.98-18.4,39.65-40.38,40.38l-24.35,24.35c7.21,2.51,14.96,3.88,23.03,3.88.24,0,.48,0,.72,0l69.27-69.27c0-.24,0-.48,0-.72,0-8.07-1.37-15.81-3.88-23.03l-24.42,24.42Z"/>
      <path class="cls-6" d="m127.39,69.99c0,.24,0,.47,0,.71l24.22-24.22c-2.34-6.56-5.64-12.68-9.72-18.17l-20.34,20.34c3.71,6.25,5.85,13.54,5.85,21.34Z"/>
      <path class="cls-6" d="m85.57,111.81c-7.8,0-15.09-2.14-21.34-5.85l-20.28,20.28c5.49,4.08,11.61,7.37,18.17,9.72l24.15-24.15c-.24,0-.47,0-.71,0Z"/>
      <path class="cls-9" d="m121.29,48.24l20.31-20.31c-3.9-5.17-8.5-9.79-13.65-13.7l-20.27,20.27c5.54,3.46,10.21,8.17,13.61,13.74Z"/>
      <path class="cls-9" d="m50.08,92.09l-20.2,20.2c3.92,5.16,8.53,9.76,13.7,13.65l20.24-20.24c-5.57-3.4-10.29-8.07-13.74-13.61Z"/>
      <path class="cls-2" d="m85.57,28.17c7.94,0,15.37,2.22,21.7,6.06l20.3-20.3c-5.48-4.1-11.58-7.41-18.14-9.78l-24.02,24.02c.05,0,.11,0,.16,0Z"/>
      <path class="cls-2" d="m43.76,69.99c0-.05,0-.11,0-.16l-23.95,23.95c2.37,6.56,5.68,12.66,9.78,18.14l20.23-20.23c-3.85-6.33-6.06-13.75-6.06-21.7Z"/>
      <path class="cls-14" d="m84.73,28.19L108.95,3.98c-7.29-2.57-15.13-3.98-23.29-3.98-.11,0-.22,0-.33,0L15.66,69.67c0,.11,0,.22,0,.33,0,8.17,1.4,16.01,3.98,23.29l24.15-24.15c.45-22.42,18.53-40.51,40.95-40.95Z"/>
      <path class="cls-11" d="m15.67,69L84.65.02C46.79.55,16.2,31.13,15.67,69Z"/>
    </g>
    <text class="cls-4" transform="translate(0 192.47)"><tspan class="cls-10" x="0" y="0">HEIM</tspan><tspan class="cls-1" x="80.93" y="0">D</tspan><tspan class="cls-10" x="103.49" y="0">ALL</tspan></text>
    <text class="cls-7" transform="translate(14.45 163.92)"><tspan class="cls-15" x="0" y="0">PR</tspan><tspan class="cls-8" x="24.41" y="0">O</tspan><tspan class="cls-5" x="38.25" y="0">T</tspan><tspan class="cls-12" x="49.93" y="0">E</tspan><tspan class="cls-13" x="60.71" y="0">C</tspan><tspan class="cls-15" x="73.98" y="0">TED </tspan><tspan class="cls-12" x="114.41" y="0">B</tspan><tspan class="cls-5" x="126" y="0">Y</tspan></text>
  </g>
</svg>